# xmcd CD database file
#
# Track frame offsets:
#       150
#       21478
#       43313
#       62551
#       82957
#       106273
#       139075
#       162611
#       185125
#       196565
#       208896
#       225312
#       256044
#       267029
#       282486
#
# Disc length: 4034 seconds
#
# Revision: 1
# Processed by: cddbd v1.5.2PL0 Copyright (c) Steve Scherf et al.
# Submitted via: jack 3.1.1
#
DISCID=d50fc00f
DTITLE=Various Artist - Blues Magazine - No Trash, No Dogs. This Is The Best Of 2013
DYEAR=2013
DGENRE=Blues
TTITLE0=Rosco Levee And The Southern Slide - Whiskey Blues Goodnight
TTITLE1=JJ Grey and Mofro - 99 Shades Of Crazy
TTITLE2=The Hoax - Hipslicker
TTITLE3=Walter Trout and His Band - I'm Back
TTITLE4=JO Harman - Cold Heart
TTITLE5=King King - A Long History Of Love
TTITLE6=Beth Hart and Joe Bonamassa - Close To My Fire
TTITLE7=Mike Zito and The Wheel - Gone To Texas
TTITLE8=Wooden Horse - Kinda Man
TTITLE9=Barrence Whitfield And The Savages - Bread
TTITLE10=Lucy Zirins - Wake Me
TTITLE11=Larry Miller - Messin' With The Kid
TTITLE12=The Graveltones - Forget About The Trouble
TTITLE13=Innes Sibun - She Don't Care
TTITLE14=The Temperance Movement - Only Friend
EXTD=
EXTT0=
EXTT1=
EXTT2=
EXTT3=
EXTT4=
EXTT5=
EXTT6=
EXTT7=
EXTT8=
EXTT9=
EXTT10=
EXTT11=
EXTT12=
EXTT13=
EXTT14=
PLAYORDER=
